<svg width="512" height="512" xml:space="preserve" xmlns="http://www.w3.org/2000/svg"><defs><clipPath id="a"><path d="m43.951 105.03 289.96-99.889 15.411 6.85 71.92 460.06-13.699 6.278-312.79 22.261z" fill="#fddb45"/></clipPath><clipPath id="b"><path d="m43.951 105.03 289.96-99.889 15.411 6.85 71.92 460.06-13.699 6.278-312.79 22.261z" fill="#fddb45"/></clipPath><clipPath id="c"><path d="m348.75 57.079 52.513-17.695 11.987 6.279 63.358 397.84-9.133 4.566-56.508 5.708z" fill="#fdd41f"/></clipPath></defs><path d="m348.75 57.079 52.513-17.695 11.987 6.279 63.358 397.84-9.133 4.566-56.508 5.708z" fill="#fddb45"/><path d="m352.18 62.216 30.823 11.416 54.225 349.9-33.106 10.845z" fill="#ac9c6c"/><path d="m43.951 105.03 289.96-99.889 15.411 6.85 71.92 460.06-13.699 6.278-312.79 22.261z" fill="#fddb45"/><path d="m46.234 131.85 265.42-86.76 19.407 119.87-77.057 21.119-7.991-57.65 23.402-7.42 4.566 28.54 25.686-6.85-8.562-59.933-73.632 22.261 17.124 115.87 100.46-23.402 15.411 92.468-103.88 18.836 17.124 118.72 77.628-8.562-9.703-61.645-26.256 2.854 4.566 30.252-25.686 3.996-9.132-59.933 78.769-11.987 19.407 125.57-282.61 24.544-3.223-26.055 104.89-11.618-7.42-57.08-21.69 2.855 3.995 27.969-83.572 11.249-30.085-236.51 79.409-23.033 3.425 27.398 21.119-6.85-6.85-53.654-100.46 29.681z" clip-path="url(#a)" fill="#64317e"/><path d="m334.48.57 14.841 11.988 71.92 460.06-13.128 13.699z" clip-path="url(#b)" fill="#e7c221"/><path d="m400.7 37.101 67.924 416.68 13.128-9.703-66.212-404.12z" clip-path="url(#c)" fill="#e7c221"/></svg>