<svg width="512" height="512" xml:space="preserve" xmlns="http://www.w3.org/2000/svg"><defs><clipPath id="a"><path d="M44 105 334 5l15 7 72 460-13 6-313 23z" fill="#fddb45"/></clipPath><clipPath id="b"><path d="M44 105 334 5l15 7 72 460-13 6-313 23z" fill="#fddb45"/></clipPath><clipPath id="c"><path d="m349 57 52-18 12 7 64 398-10 4-56 6z" fill="#fdd41f"/></clipPath><clipPath id="e"><path class="powerclip" d="M39 0h387v506H39zm7 132 4 25 101-30 7 54-22 7-3-28-79 23 30 237 83-11-4-28 22-3 7 57-105 12 4 26 282-25-19-125-79 11 9 60 26-4-5-30 27-3 9 62-77 9-17-119 103-19-15-92-100 23-18-116 74-22 9 60-26 7-5-29-23 7 8 58 77-21-19-120z" fill="#64317e"/></clipPath><clipPath id="d"><path class="powerclip" d="M344 34h138v425H344zm8 28 52 372 33-10-54-350z" fill="#ac9c6c"/></clipPath></defs><path d="m349 57 52-18 12 7 64 398-10 4-56 6z" clip-path="url(#d)"/><path d="M44 105 334 5l15 7 72 460-13 6-313 23z" clip-path="url(#e)"/><path d="m263 245 51-12 4 32-51 9z"/><path d="m44 105 50 393z" stroke="#000" stroke-width="2"/></svg>